<svg width="24" height="24" viewBox="0 0 24 24" fill="none" xmlns="http://www.w3.org/2000/svg">
<path d="M10.1197 2.36C9.50635 2.6 8.95969 2.96 8.47969 3.44C8.05302 3.92 7.70635 4.46667 7.43969 5.08C7.17302 5.69333 7.03969 6.32 7.03969 6.96C7.03969 7.6 7.17302 8.22667 7.43969 8.84C7.70635 9.45333 8.05302 9.97333 8.47969 10.4V10.48C8.95969 10.9067 9.50635 11.2533 10.1197 11.52C10.733 11.7867 11.3597 11.92 11.9997 11.92C12.6397 11.92 13.2664 11.7867 13.8797 11.52C14.493 11.2533 15.0397 10.9067 15.5197 10.48C15.9464 10 16.293 9.45333 16.5597 8.84C16.8264 8.22667 16.9597 7.6 16.9597 6.96C16.9597 6.32 16.8264 5.69333 16.5597 5.08C16.293 4.46667 15.9464 3.92 15.5197 3.44C15.0397 2.96 14.493 2.6 13.8797 2.36C13.2664 2.12 12.6397 2 11.9997 2C11.3597 2 10.733 2.12 10.1197 2.36Z" fill="#111111"/>
<path d="M8.79969 13.56C7.78635 13.96 6.87969 14.56 6.07969 15.36C5.33302 16.1067 4.74635 16.9733 4.31969 17.96C3.89302 18.9467 3.67969 20 3.67969 21.12C3.67969 21.3333 3.75969 21.5333 3.91969 21.72C4.07969 21.9067 4.29302 22 4.55969 22H19.4397C19.7064 22 19.9197 21.9067 20.0797 21.72C20.2397 21.5333 20.3197 21.3333 20.3197 21.12C20.3197 20 20.1064 18.9467 19.6797 17.96C19.253 16.9733 18.653 16.0933 17.8797 15.32C17.1064 14.5467 16.213 13.96 15.1997 13.56C14.1864 13.16 13.1197 12.96 11.9997 12.96C10.8797 12.96 9.81302 13.16 8.79969 13.56Z" fill="#111111"/>
</svg>
