<svg width="24" height="24" viewBox="0 0 24 24" fill="none" xmlns="http://www.w3.org/2000/svg">
<path d="M14.32 2.8C13.6266 2.26667 12.84 2 11.96 2C11.08 2 10.2933 2.26667 9.59998 2.8L3.67998 7.6C3.30665 7.92 3.01331 8.28 2.79998 8.68C2.58665 9.08 2.47998 9.52 2.47998 10V18C2.47998 19.0667 2.87998 20 3.67998 20.8C4.47998 21.6 5.43998 22 6.55998 22H9.03998C9.25331 22 9.45331 21.9067 9.63998 21.72C9.82665 21.5333 9.91998 21.3333 9.91998 21.12V17.2C9.91998 17.0933 9.95998 17 10.04 16.92C10.12 16.84 10.2133 16.8 10.32 16.8H13.68C13.7866 16.8 13.88 16.84 13.96 16.92C14.04 17 14.08 17.0933 14.08 17.2V21.12C14.08 21.3333 14.1733 21.5333 14.36 21.72C14.5466 21.9067 14.7466 22 14.96 22H17.44C18.56 22 19.52 21.6 20.32 20.8C21.12 20 21.52 19.0667 21.52 18V10C21.52 9.52 21.4133 9.06667 21.2 8.64C20.9866 8.21333 20.6933 7.86667 20.32 7.6L14.32 2.8Z" stroke="black" stroke-width="2"/>
</svg>
