<svg width="24" height="24" viewBox="0 0 24 24" fill="none" xmlns="http://www.w3.org/2000/svg">
<path d="M8.47993 3.44C8.95993 2.96 9.5066 2.6 10.1199 2.36C10.7333 2.12 11.3599 2 11.9999 2C12.6399 2 13.2666 2.12 13.8799 2.36C14.4933 2.6 15.0399 2.96 15.5199 3.44C15.9466 3.92 16.2933 4.46667 16.5599 5.08C16.8266 5.69333 16.9599 6.32 16.9599 6.96C16.9599 7.6 16.8266 8.22667 16.5599 8.84C16.2933 9.45333 15.9466 10 15.5199 10.48C15.0399 10.9067 14.4933 11.2533 13.8799 11.52C13.2666 11.7867 12.6399 11.92 11.9999 11.92C11.3599 11.92 10.7333 11.7867 10.1199 11.52C9.5066 11.2533 8.95993 10.9067 8.47993 10.48V10.4C8.05326 9.97333 7.7066 9.45333 7.43993 8.84C7.17326 8.22667 7.03993 7.6 7.03993 6.96C7.03993 6.32 7.17326 5.69333 7.43993 5.08C7.7066 4.46667 8.05326 3.92 8.47993 3.44ZM9.75993 4.72C9.17326 5.30667 8.87993 6.04 8.87993 6.92C8.87993 7.8 9.1866 8.54667 9.79993 9.16C10.4133 9.77333 11.1466 10.08 11.9999 10.08C12.8533 10.08 13.5866 9.77333 14.1999 9.16C14.8133 8.54667 15.1199 7.81333 15.1199 6.96C15.1199 6.10667 14.8133 5.37333 14.1999 4.76C13.5866 4.14667 12.8533 3.84 11.9999 3.84C11.1466 3.84 10.3999 4.13333 9.75993 4.72ZM11.9999 14.72C11.1466 14.72 10.3199 14.8933 9.51993 15.24C8.71993 15.5867 7.99993 16.0533 7.35993 16.64C6.3466 17.6 5.73326 18.7733 5.51993 20.16H18.4799C18.2666 18.7733 17.6533 17.6 16.6399 16.64C16.0533 16.0533 15.3466 15.5867 14.5199 15.24C13.6933 14.8933 12.8533 14.72 11.9999 14.72ZM6.07993 15.36C6.87993 14.56 7.7866 13.96 8.79993 13.56C9.81326 13.16 10.8799 12.96 11.9999 12.96C13.1199 12.96 14.1866 13.16 15.1999 13.56C16.2133 13.96 17.1066 14.5467 17.8799 15.32C18.6533 16.0933 19.2533 16.9733 19.6799 17.96C20.1066 18.9467 20.3199 20 20.3199 21.12C20.3199 21.3333 20.2399 21.5333 20.0799 21.72C19.9199 21.9067 19.7066 22 19.4399 22H4.55993C4.29326 22 4.07993 21.9067 3.91993 21.72C3.75993 21.5333 3.67993 21.3333 3.67993 21.12C3.67993 20 3.89326 18.9467 4.31993 17.96C4.7466 16.9733 5.33326 16.1067 6.07993 15.36Z" fill="#111111"/>
</svg>
