<svg width="192" height="80" viewBox="0 0 192 80" fill="none" xmlns="http://www.w3.org/2000/svg">
<g clip-path="url(#clip0_4_28)">
<path d="M73.027 50H79.812V42.439H94.668V37.583H79.812V34.923H94.668V30.065H73.028L73.027 50ZM104.357 30.044L95.488 50H102.162L103.958 45.676H113.027L114.845 50H121.852L112.96 30.044H104.335H104.357ZM105.799 41.064L108.459 34.679H108.482L111.165 41.064H105.776H105.799ZM140.211 42.107V30.043H146.996V50H138.925L130.455 37.938V50H123.67V30.044H131.719L140.211 42.107ZM165.954 37.783L162.428 37.406C159.258 37.162 158.304 36.674 158.304 35.765C158.304 34.568 160.388 34.213 162.65 34.213C165.133 34.213 166.996 34.678 167.506 36.075H174.557C173.736 32.085 169.302 30 163.071 30C156.841 30 151.808 32.195 151.808 35.964C151.808 39.579 154.934 41.486 160.788 41.995L164.291 42.35C167.506 42.616 168.659 43.038 168.659 44.146C168.659 45.41 166.774 45.809 163.803 45.809C160.832 45.809 158.992 45.189 158.437 43.659H151.386C152.251 47.627 156.641 49.999 163.559 49.999C170.477 49.999 175.2 47.783 175.2 43.592C175.2 39.912 172.096 38.36 165.954 37.783ZM16 30.044V50H26.753V45.144H22.807V34.922H26.753V30.044H16ZM47.396 30.044V34.922H51.342V45.144H47.395V50H58.15V30.044H47.396Z" fill="#111111"/>
</g>
<defs>
<clipPath id="clip0_4_28">
<rect width="160" height="20" fill="white" transform="translate(16 30)"/>
</clipPath>
</defs>
</svg>
