<svg width="150" height="18" viewBox="0 0 150 18" fill="none" xmlns="http://www.w3.org/2000/svg">
<g clip-path="url(#clip0_5_1650)">
<path d="M0.5 0.176H9.06L13.848 12.136H13.868L18.637 0.177H27.197V17.767H21.627V9.207L21.686 5.239H21.666L16.506 17.786H11.171L6.031 5.238H6.011L6.051 9.205V17.765H0.5V0.176ZM59.875 0.235H78.949V4.515H65.855V6.86H78.949V11.14H65.855V17.805H59.875V0.235ZM79.672 17.805L87.49 0.215H95.093L102.93 17.805H96.754L95.151 13.993H87.158L85.575 17.805H79.672ZM88.76 9.928H93.51L91.145 4.3H91.125L88.78 9.928H88.76ZM104.513 0.215H111.627L119.718 11.707H119.738L119.66 7.739V0.215H125.073V17.805H117.94L109.888 6.313H109.868L109.946 10.28V17.805H104.513V0.215ZM128.005 12.274H134.337C134.845 13.642 136.565 14.209 139.164 14.209C141.764 14.209 143.523 13.837 143.523 12.743C143.523 11.726 142.507 11.335 139.614 11.101L136.467 10.788C131.191 10.338 128.376 8.618 128.376 5.394C128.376 1.974 132.695 0 138.5 0C144.305 0 148.077 1.896 148.819 5.472H142.487C142.018 4.222 140.357 3.792 138.129 3.792C136.096 3.792 134.239 4.104 134.22 5.16C134.22 6 135.08 6.45 137.914 6.664L141.08 6.997C146.611 7.505 149.406 8.912 149.406 12.195C149.406 15.987 145.438 17.98 138.95 17.98C132.461 17.98 128.787 15.83 128.005 12.274ZM51.001 0.176H44.122L39.862 6.86H39.822L35.483 0.176H28.526L36.793 11.16V17.805H42.773V11.179L51.001 0.176Z" fill="black"/>
</g>
<defs>
<clipPath id="clip0_5_1650">
<rect width="150" height="18" fill="white"/>
</clipPath>
</defs>
</svg>
